<svg id="Layer_1" data-name="Layer 1" xmlns="http://www.w3.org/2000/svg" viewBox="0 0 1000 336"><defs><style>.cls-1{font-size:210px;fill:#f66;font-family:AttenRoundNew-Book, Atten Round New;}.cls-2{letter-spacing:-0.004em;}.cls-3{letter-spacing:0em;}.cls-4{letter-spacing:-0.005em;}.cls-5{letter-spacing:0em;}</style></defs><text class="cls-1" transform="translate(275.157 224.3527)">c<tspan class="cls-2" x="95.3389" y="0">a</tspan><tspan class="cls-3" x="190.6777" y="0">tal</tspan><tspan class="cls-4" x="412.4346" y="0">y</tspan><tspan class="cls-5" x="509.0361" y="0">st</tspan></text><path d="M139.7572,199.9937l-27.7724,48.1032a9.299,9.299,0,0,0,8.0531,13.9484h55.5448a9.2989,9.2989,0,0,0,8.0531-13.9484l-27.7724-48.1032A9.2989,9.2989,0,0,0,139.7572,199.9937Z"/><path d="M124.7759,182.0453H69.2311a9.2989,9.2989,0,0,0-8.0531,13.9484L88.95,244.0969a9.2989,9.2989,0,0,0,16.1062,0l27.7724-48.1032A9.2989,9.2989,0,0,0,124.7759,182.0453Z"/><path d="M132.829,160.0969l-27.7724-48.1032a9.2989,9.2989,0,0,0-16.1062,0L61.178,160.0969a9.2989,9.2989,0,0,0,8.0531,13.9484h55.5448A9.2989,9.2989,0,0,0,132.829,160.0969Z"/><path d="M155.8634,156.0969l27.7724-48.1032a9.2989,9.2989,0,0,0-8.0531-13.9484H120.0379a9.299,9.299,0,0,0-8.0531,13.9484l27.7724,48.1032A9.2989,9.2989,0,0,0,155.8634,156.0969Z"/><path d="M170.8448,174.0453H226.39a9.299,9.299,0,0,0,8.0532-13.9484L206.67,111.9937a9.299,9.299,0,0,0-16.1063,0l-27.7724,48.1032A9.299,9.299,0,0,0,170.8448,174.0453Z"/><path d="M162.7916,195.9937l27.7724,48.1032a9.299,9.299,0,0,0,16.1063,0l27.7724-48.1032a9.299,9.299,0,0,0-8.0532-13.9484H170.8448A9.299,9.299,0,0,0,162.7916,195.9937Z"/><path d="M139.7572,199.9937l-27.7724,48.1032a9.299,9.299,0,0,0,8.0531,13.9484h55.5448a9.2989,9.2989,0,0,0,8.0531-13.9484l-27.7724-48.1032A9.2989,9.2989,0,0,0,139.7572,199.9937Z"/></svg>